<svg version="1.1" id="Layer_1" xmlns="http://www.w3.org/2000/svg" xmlns:xlink="http://www.w3.org/1999/xlink" x="0px" y="0px"
	 width="100%" viewBox="0 0 256 142" enable-background="new 0 0 256 142" xml:space="preserve">
<path fill="" opacity="1.000000" stroke="none" 
	d="
M17.000000,143.000000 
	C11.669607,143.000000 6.339214,143.000000 1.006615,143.000000 
	C1.004410,95.695702 1.004410,48.391403 1.004410,1.043551 
	C86.257233,1.043551 171.514496,1.043551 256.885864,1.043551 
	C256.885864,48.230915 256.885864,95.462196 256.885864,143.000000 
	C177.979370,143.000000 98.958344,143.000000 19.468321,142.531342 
	C18.999327,132.607986 18.999327,123.153282 18.999327,113.698578 
	C18.332884,113.697845 17.666443,113.697113 17.000000,113.696381 
	C17.000000,123.464256 17.000000,133.232132 17.000000,143.000000 
M22.168453,110.162460 
	C21.873478,117.162949 21.391602,124.166382 21.501850,131.160477 
	C21.516937,132.117676 24.473572,133.822845 26.081949,133.839203 
	C44.726559,134.028793 63.373798,133.957886 82.020340,133.961182 
	C86.205315,133.961929 88.026703,131.781845 87.978226,127.707932 
	C87.922768,123.046959 87.868484,118.382172 87.995346,113.723991 
	C88.104301,109.723000 86.385674,107.980110 82.343163,107.996422 
	C63.863411,108.070999 45.382927,107.988922 26.903664,108.110237 
	C25.590967,108.118851 24.286041,109.311623 23.003201,109.997437 
	C23.003201,109.997437 22.957191,109.979851 22.168453,110.162460 
M105.645256,26.155514 
	C104.537476,26.495403 103.442184,26.885141 102.319702,27.166365 
	C97.964981,28.257381 95.403397,30.384264 95.909286,35.519279 
	C96.380592,40.303253 96.053993,45.170261 96.001503,49.999878 
	C95.965591,53.305462 97.416054,54.873257 100.810570,54.866302 
	C122.130028,54.822628 143.449799,54.799068 164.768967,54.888882 
	C168.117416,54.902988 169.134140,53.468479 169.060242,50.367397 
	C168.933319,45.040569 168.731583,39.686756 169.120346,34.385265 
	C169.447357,29.925673 167.304413,28.250521 163.487701,27.091997 
	C156.028641,24.827885 148.672638,22.223640 141.277542,19.749586 
	C135.772507,17.907856 130.299774,17.533171 124.709389,19.565405 
	C118.637672,21.772614 112.482117,23.749199 105.645256,26.155514 
M203.915527,93.143204 
	C198.787781,93.201096 196.762283,90.408073 196.897568,85.568077 
	C196.953415,83.570007 196.843613,81.567001 196.909836,79.569580 
	C197.092453,74.060287 199.296661,71.690964 204.848083,71.472076 
	C209.673462,71.281807 214.529877,71.189743 219.336258,71.545357 
	C221.266525,71.688171 223.939056,72.632065 224.826050,74.091324 
	C227.988113,79.293510 232.668839,75.920784 236.556931,76.641350 
	C237.180435,76.756889 238.858978,75.151299 238.736145,74.694824 
	C237.737961,70.985214 236.908783,67.077194 235.004669,63.829689 
	C234.071945,62.238888 230.983902,61.206570 228.838730,61.149639 
	C217.366531,60.845154 205.868851,60.554417 194.410934,61.020264 
	C187.754761,61.290886 183.530548,66.209610 183.190567,72.934479 
	C182.871353,79.249023 182.896622,85.603363 183.193649,91.920280 
	C183.479813,98.006760 186.685806,102.721764 192.585327,103.176125 
	C204.798203,104.116699 217.169525,104.718056 229.349289,103.793587 
	C238.123474,103.127602 241.113602,96.357452 238.346573,87.192719 
	C236.004456,87.192719 233.508698,87.004982 231.058380,87.257629 
	C229.378662,87.430809 226.625198,87.839188 226.308853,88.792137 
	C224.713043,93.599205 221.001068,93.150818 217.334091,93.154228 
	C213.167816,93.158112 209.001556,93.153191 203.915527,93.143204 
M106.463737,132.145401 
	C114.922844,132.145355 123.381943,132.145844 131.841049,132.145157 
	C142.657822,132.144272 153.476898,132.015137 164.290100,132.210693 
	C168.033463,132.278397 169.330261,130.991440 169.101395,127.305519 
	C168.844086,123.161110 168.802811,118.971436 169.102783,114.833000 
	C169.418579,110.476463 167.844406,109.039505 163.434174,109.090225 
	C145.464081,109.296867 127.490082,109.132103 109.517769,109.187660 
	C94.256943,109.234833 96.082642,107.400383 96.008347,122.799126 
	C95.960144,132.790359 95.092407,132.163803 106.463737,132.145401 
M217.500000,109.167473 
	C206.678802,109.169106 195.855957,109.279602 185.037216,109.117752 
	C180.825790,109.054741 178.837814,110.474159 179.097351,114.903130 
	C179.330688,118.884933 179.361008,122.906258 179.084961,126.882675 
	C178.797852,131.018570 180.599197,132.708405 184.534485,132.706345 
	C203.013641,132.696671 221.492859,132.686981 239.971909,132.733612 
	C243.303955,132.742035 244.879929,131.330994 244.813187,127.939201 
	C244.724762,123.445938 244.668442,118.945580 244.822845,114.455986 
	C244.955460,110.600044 243.316681,109.046791 239.475632,109.127335 
	C232.486542,109.273888 225.492172,109.168213 217.500000,109.167473 
M186.658752,54.908863 
	C204.884293,54.908863 223.109833,54.908863 241.335373,54.908863 
	C241.386673,54.431026 241.437988,53.953190 241.489304,53.475353 
	C240.228561,52.731586 239.052948,51.726902 237.694183,51.283512 
	C219.656662,45.397541 201.581253,39.627556 183.548370,33.727558 
	C180.470673,32.720600 179.097885,33.524738 179.107361,36.745434 
	C179.118622,40.567863 179.101044,44.390369 179.105240,48.212833 
	C179.112473,54.812092 179.115479,54.812088 186.658752,54.908863 
M63.642715,40.183754 
	C51.117062,44.394573 38.591408,48.605392 26.065754,52.816212 
	C26.174959,53.305466 26.284166,53.794724 26.393373,54.283981 
	C26.964876,54.478230 27.536032,54.841084 28.107935,54.842266 
	C46.255424,54.879887 64.404526,54.981327 82.547615,54.700672 
	C83.983795,54.678459 86.403893,52.091450 86.597649,50.483269 
	C87.151253,45.888103 86.819748,41.182793 86.783264,36.521221 
	C86.756691,33.125248 84.921158,32.693771 82.118965,33.688503 
	C76.215302,35.784206 70.283905,37.801777 63.642715,40.183754 
M118.092636,59.436760 
	C106.788887,62.110245 103.930954,65.437859 103.790062,76.890045 
	C103.722733,82.363304 103.944244,87.871246 104.517830,93.312584 
	C105.103653,98.870064 108.518806,103.034233 113.999908,103.391876 
	C126.059685,104.178787 138.177368,104.114677 150.273056,104.266769 
	C151.705185,104.284767 153.188919,103.589638 154.577881,103.044571 
	C159.800797,100.994957 163.201065,93.505531 161.157349,88.406181 
	C160.852890,87.646561 159.709976,86.592743 159.106644,86.683487 
	C154.555405,87.367996 148.684784,83.435593 145.796494,90.562500 
	C145.354919,91.652061 142.631866,92.147194 140.906036,92.312691 
	C137.936096,92.597466 134.920532,92.412903 131.924118,92.414230 
	C118.810898,92.420044 117.746635,91.145020 118.921448,77.923691 
	C119.265633,74.050232 121.330330,71.978455 124.845131,71.782585 
	C130.486099,71.468239 136.162766,71.519585 141.809036,71.766724 
	C143.244766,71.829559 144.912384,72.936806 145.968094,74.045410 
	C148.308578,76.503189 157.566422,78.194344 159.890198,76.302551 
	C162.123795,74.484161 160.793610,66.380531 157.433228,63.550064 
	C155.732559,62.117596 153.424255,60.707027 151.312668,60.579655 
	C140.549286,59.930397 129.760437,59.703537 118.092636,59.436760 
M83.182030,93.825340 
	C82.733688,91.325874 85.050217,87.072899 80.966591,86.837181 
	C76.495010,86.579086 70.554184,83.472443 67.692650,90.571777 
	C67.279839,91.595940 64.839790,92.155640 63.282162,92.291512 
	C60.140163,92.565590 56.958992,92.358681 53.795490,92.423653 
	C40.354664,92.699677 40.184563,92.375626 41.098022,76.956963 
	C41.180828,75.559258 42.585037,73.127312 43.500324,73.066956 
	C51.020588,72.571014 58.570034,72.484032 66.111938,72.413864 
	C66.712357,72.408279 67.389771,73.402969 67.916542,74.029396 
	C70.061279,76.579926 78.666550,78.255478 81.369949,76.458633 
	C82.075951,75.989380 82.618248,74.927261 82.786003,74.051300 
	C83.840973,68.542816 80.074814,61.945213 74.602654,60.829056 
	C61.606770,58.178288 48.483223,58.118660 35.451687,60.611286 
	C30.446049,61.568752 26.899855,65.019112 26.546530,70.154282 
	C26.024200,77.745743 25.973433,85.412369 26.383139,93.011330 
	C26.694275,98.782127 30.385546,103.073990 36.088776,103.436951 
	C48.155972,104.204918 60.291561,104.419601 72.379478,104.105652 
	C77.866783,103.963135 81.997704,100.572701 83.182030,93.825340 
z"/>
<path fill="#5A9CD0" opacity="1.000000" stroke="white" 
	d="
M106.004196,25.990931 
	C112.482117,23.749199 118.637672,21.772614 124.709389,19.565405 
	C130.299774,17.533171 135.772507,17.907856 141.277542,19.749586 
	C148.672638,22.223640 156.028641,24.827885 163.487701,27.091997 
	C167.304413,28.250521 169.447357,29.925673 169.120346,34.385265 
	C168.731583,39.686756 168.933319,45.040569 169.060242,50.367397 
	C169.134140,53.468479 168.117416,54.902988 164.768967,54.888882 
	C143.449799,54.799068 122.130028,54.822628 100.810570,54.866302 
	C97.416054,54.873257 95.965591,53.305462 96.001503,49.999878 
	C96.053993,45.170261 96.380592,40.303253 95.909286,35.519279 
	C95.403397,30.384264 97.964981,28.257381 102.319702,27.166365 
	C103.442184,26.885141 104.537476,26.495403 106.004196,25.990931 
z"/>
<path fill="#151515" opacity="1.000000" stroke="white" 
	d="
M204.375397,93.147652 
	C209.001556,93.153191 213.167816,93.158112 217.334091,93.154228 
	C221.001068,93.150818 224.713043,93.599205 226.308853,88.792137 
	C226.625198,87.839188 229.378662,87.430809 231.058380,87.257629 
	C233.508698,87.004982 236.004456,87.192719 238.346573,87.192719 
	C241.113602,96.357452 238.123474,103.127602 229.349289,103.793587 
	C217.169525,104.718056 204.798203,104.116699 192.585327,103.176125 
	C186.685806,102.721764 183.479813,98.006760 183.193649,91.920280 
	C182.896622,85.603363 182.871353,79.249023 183.190567,72.934479 
	C183.530548,66.209610 187.754761,61.290886 194.410934,61.020264 
	C205.868851,60.554417 217.366531,60.845154 228.838730,61.149639 
	C230.983902,61.206570 234.071945,62.238888 235.004669,63.829689 
	C236.908783,67.077194 237.737961,70.985214 238.736145,74.694824 
	C238.858978,75.151299 237.180435,76.756889 236.556931,76.641350 
	C232.668839,75.920784 227.988113,79.293510 224.826050,74.091324 
	C223.939056,72.632065 221.266525,71.688171 219.336258,71.545357 
	C214.529877,71.189743 209.673462,71.281807 204.848083,71.472076 
	C199.296661,71.690964 197.092453,74.060287 196.909836,79.569580 
	C196.843613,81.567001 196.953415,83.570007 196.897568,85.568077 
	C196.762283,90.408073 198.787781,93.201096 204.375397,93.147652 
z"/>
<path fill="#5C9DD1" opacity="1.000000" stroke="white" 
	d="
M105.985138,132.145569 
	C95.092407,132.163803 95.960144,132.790359 96.008347,122.799126 
	C96.082642,107.400383 94.256943,109.234833 109.517769,109.187660 
	C127.490082,109.132103 145.464081,109.296867 163.434174,109.090225 
	C167.844406,109.039505 169.418579,110.476463 169.102783,114.833000 
	C168.802811,118.971436 168.844086,123.161110 169.101395,127.305519 
	C169.330261,130.991440 168.033463,132.278397 164.290100,132.210693 
	C153.476898,132.015137 142.657822,132.144272 131.841049,132.145157 
	C123.381943,132.145844 114.922844,132.145355 105.985138,132.145569 
z"/>
<path fill="#5E9ED1" opacity="1.000000" stroke="white" 
	d="
M218.000000,109.167633 
	C225.492172,109.168213 232.486542,109.273888 239.475632,109.127335 
	C243.316681,109.046791 244.955460,110.600044 244.822845,114.455986 
	C244.668442,118.945580 244.724762,123.445938 244.813187,127.939201 
	C244.879929,131.330994 243.303955,132.742035 239.971909,132.733612 
	C221.492859,132.686981 203.013641,132.696671 184.534485,132.706345 
	C180.599197,132.708405 178.797852,131.018570 179.084961,126.882675 
	C179.361008,122.906258 179.330688,118.884933 179.097351,114.903130 
	C178.837814,110.474159 180.825790,109.054741 185.037216,109.117752 
	C195.855957,109.279602 206.678802,109.169106 218.000000,109.167633 
z"/>
<path fill="#68A2D0" opacity="1.000000" stroke="white" 
	d="
M186.184418,54.908546 
	C179.115479,54.812088 179.112473,54.812092 179.105240,48.212833 
	C179.101044,44.390369 179.118622,40.567863 179.107361,36.745434 
	C179.097885,33.524738 180.470673,32.720600 183.548370,33.727558 
	C201.581253,39.627556 219.656662,45.397541 237.694183,51.283512 
	C239.052948,51.726902 240.228561,52.731586 241.489304,53.475353 
	C241.437988,53.953190 241.386673,54.431026 241.335373,54.908863 
	C223.109833,54.908863 204.884293,54.908863 186.184418,54.908546 
z"/>
<path fill="#67A2D0" opacity="1.000000" stroke="white" 
	d="
M64.003296,40.017578 
	C70.283905,37.801777 76.215302,35.784206 82.118965,33.688503 
	C84.921158,32.693771 86.756691,33.125248 86.783264,36.521221 
	C86.819748,41.182793 87.151253,45.888103 86.597649,50.483269 
	C86.403893,52.091450 83.983795,54.678459 82.547615,54.700672 
	C64.404526,54.981327 46.255424,54.879887 28.107935,54.842266 
	C27.536032,54.841084 26.964876,54.478230 26.393373,54.283981 
	C26.284166,53.794724 26.174959,53.305466 26.065754,52.816212 
	C38.591408,48.605392 51.117062,44.394573 64.003296,40.017578 
z"/>
<path fill="#636363" opacity="1.000000" stroke="white" 
	d="
M118.536568,59.382809 
	C129.760437,59.703537 140.549286,59.930397 151.312668,60.579655 
	C153.424255,60.707027 155.732559,62.117596 157.433228,63.550064 
	C160.793610,66.380531 162.123795,74.484161 159.890198,76.302551 
	C157.566422,78.194344 148.308578,76.503189 145.968094,74.045410 
	C144.912384,72.936806 143.244766,71.829559 141.809036,71.766724 
	C136.162766,71.519585 130.486099,71.468239 124.845131,71.782585 
	C121.330330,71.978455 119.265633,74.050232 118.921448,77.923691 
	C117.746635,91.145020 118.810898,92.420044 131.924118,92.414230 
	C134.920532,92.412903 137.936096,92.597466 140.906036,92.312691 
	C142.631866,92.147194 145.354919,91.652061 145.796494,90.562500 
	C148.684784,83.435593 154.555405,87.367996 159.106644,86.683487 
	C159.709976,86.592743 160.852890,87.646561 161.157349,88.406181 
	C163.201065,93.505531 159.800797,100.994957 154.577881,103.044571 
	C153.188919,103.589638 151.705185,104.284767 150.273056,104.266769 
	C138.177368,104.114677 126.059685,104.178787 113.999908,103.391876 
	C108.518806,103.034233 105.103653,98.870064 104.517830,93.312584 
	C103.944244,87.871246 103.722733,82.363304 103.790062,76.890045 
	C103.930954,65.437859 106.788887,62.110245 118.536568,59.382809 
M149.930710,61.780807 
	C139.451981,61.725346 128.971817,61.539448 118.495003,61.655994 
	C110.225952,61.747982 105.860085,66.218529 105.724731,74.349907 
	C105.638908,79.505463 105.629829,84.665146 105.728813,89.820244 
	C105.880005,97.694221 110.238266,102.198380 118.174118,102.329941 
	C128.484879,102.500885 138.803619,102.509377 149.111786,102.274231 
	C151.461761,102.220619 154.878571,101.574509 155.880249,99.987015 
	C157.759079,97.009445 158.232727,93.145233 159.290802,89.649788 
	C156.728577,89.087921 154.168991,88.145729 151.603012,88.127998 
	C150.359131,88.119400 149.153458,89.921982 147.840363,90.764000 
	C146.143814,91.851936 144.402649,93.560715 142.600876,93.668571 
	C136.468048,94.035675 130.262238,94.209084 124.165108,93.620003 
	C121.868927,93.398155 118.380478,91.245773 117.905983,89.353882 
	C116.856194,85.168221 116.817825,80.513428 117.413063,76.194138 
	C117.956787,72.248589 120.922173,70.015877 125.302925,70.117699 
	C130.622864,70.241364 135.978058,69.800789 141.257233,70.277428 
	C143.509415,70.480782 145.501282,72.747314 147.803131,73.429527 
	C150.631989,74.267937 153.672729,74.747330 156.595093,74.641617 
	C157.251541,74.617867 158.213348,71.552444 158.315689,69.844223 
	C158.623840,64.701012 154.609055,63.336990 149.930710,61.780807 
z"/>
<path fill="#636363" opacity="1.000000" stroke="white" 
	d="
M83.133041,94.215088 
	C81.997704,100.572701 77.866783,103.963135 72.379478,104.105652 
	C60.291561,104.419601 48.155972,104.204918 36.088776,103.436951 
	C30.385546,103.073990 26.694275,98.782127 26.383139,93.011330 
	C25.973433,85.412369 26.024200,77.745743 26.546530,70.154282 
	C26.899855,65.019112 30.446049,61.568752 35.451687,60.611286 
	C48.483223,58.118660 61.606770,58.178288 74.602654,60.829056 
	C80.074814,61.945213 83.840973,68.542816 82.786003,74.051300 
	C82.618248,74.927261 82.075951,75.989380 81.369949,76.458633 
	C78.666550,78.255478 70.061279,76.579926 67.916542,74.029396 
	C67.389771,73.402969 66.712357,72.408279 66.111938,72.413864 
	C58.570034,72.484032 51.020588,72.571014 43.500324,73.066956 
	C42.585037,73.127312 41.180828,75.559258 41.098022,76.956963 
	C40.184563,92.375626 40.354664,92.699677 53.795490,92.423653 
	C56.958992,92.358681 60.140163,92.565590 63.282162,92.291512 
	C64.839790,92.155640 67.279839,91.595940 67.692650,90.571777 
	C70.554184,83.472443 76.495010,86.579086 80.966591,86.837181 
	C85.050217,87.072899 82.733688,91.325874 83.133041,94.215088 
M42.628948,61.573769 
	C31.457340,61.822784 27.705717,65.576241 27.678341,76.566406 
	C27.666321,81.392220 27.578089,86.221779 27.730976,91.043091 
	C27.932770,97.406616 32.363380,102.125099 38.762764,102.263176 
	C49.740040,102.500023 60.729229,102.510376 71.706726,102.286980 
	C78.130661,102.156242 82.084846,97.194786 81.269936,90.863831 
	C81.145683,89.898514 80.197418,88.212715 79.737747,88.248314 
	C76.160561,88.525261 71.741997,85.653435 69.366844,91.154991 
	C68.792908,92.484375 66.230263,93.595772 64.525620,93.681328 
	C58.384148,93.989563 52.197083,94.110756 46.073784,93.664291 
	C43.961739,93.510300 40.451630,91.729263 40.225300,90.278740 
	C39.436489,85.223366 39.172600,79.875153 40.057838,74.877136 
	C40.394531,72.976196 44.243446,70.734200 46.737293,70.380653 
	C51.797066,69.663345 57.063953,69.741203 62.165997,70.265137 
	C64.766968,70.532234 67.093735,72.860138 69.729393,73.558861 
	C72.761124,74.362572 75.997276,74.395126 79.144638,74.762627 
	C79.395561,72.285477 80.485611,69.503212 79.719376,67.395912 
	C78.213394,63.254131 74.327820,61.744640 70.053902,61.695915 
	C61.235275,61.595390 52.415432,61.601906 42.628948,61.573769 
z"/>
<path fill="#" opacity="1.000000" stroke="none" 
	d="
M22.977501,109.953796 
	C24.286041,109.311623 25.590967,108.118851 26.903664,108.110237 
	C45.382927,107.988922 63.863411,108.070999 82.343163,107.996422 
	C86.385674,107.980110 88.104301,109.723000 87.995346,113.723991 
	C87.868484,118.382172 87.922768,123.046959 87.978226,127.707932 
	C88.026703,131.781845 86.205315,133.961929 82.020340,133.961182 
	C63.373798,133.957886 44.726559,134.028793 26.081949,133.839203 
	C24.473572,133.822845 21.516937,132.117676 21.501850,131.160477 
	C21.391602,124.166382 21.873478,117.162949 22.594425,110.540695 
	C22.994705,116.571022 23.009489,122.223709 22.925131,127.874924 
	C22.886713,130.448654 23.679943,131.988739 26.582672,131.981735 
	C45.036034,131.937225 63.489582,131.967255 81.942932,131.919510 
	C84.714310,131.912338 86.163857,130.552444 86.046494,127.541229 
	C85.891212,123.557251 85.773193,119.545708 86.065338,115.577393 
	C86.389030,111.180595 84.668121,109.792152 80.331352,109.835182 
	C61.214893,110.024864 42.095703,109.939514 22.977501,109.953796 
z"/>
<path fill="#" opacity="1.000000" stroke="none" 
	d="
M150.364624,61.849419 
	C154.609055,63.336990 158.623840,64.701012 158.315689,69.844223 
	C158.213348,71.552444 157.251541,74.617867 156.595093,74.641617 
	C153.672729,74.747330 150.631989,74.267937 147.803131,73.429527 
	C145.501282,72.747314 143.509415,70.480782 141.257233,70.277428 
	C135.978058,69.800789 130.622864,70.241364 125.302925,70.117699 
	C120.922173,70.015877 117.956787,72.248589 117.413063,76.194138 
	C116.817825,80.513428 116.856194,85.168221 117.905983,89.353882 
	C118.380478,91.245773 121.868927,93.398155 124.165108,93.620003 
	C130.262238,94.209084 136.468048,94.035675 142.600876,93.668571 
	C144.402649,93.560715 146.143814,91.851936 147.840363,90.764000 
	C149.153458,89.921982 150.359131,88.119400 151.603012,88.127998 
	C154.168991,88.145729 156.728577,89.087921 159.290802,89.649788 
	C158.232727,93.145233 157.759079,97.009445 155.880249,99.987015 
	C154.878571,101.574509 151.461761,102.220619 149.111786,102.274231 
	C138.803619,102.509377 128.484879,102.500885 118.174118,102.329941 
	C110.238266,102.198380 105.880005,97.694221 105.728813,89.820244 
	C105.629829,84.665146 105.638908,79.505463 105.724731,74.349907 
	C105.860085,66.218529 110.225952,61.747982 118.495003,61.655994 
	C128.971817,61.539448 139.451981,61.725346 150.364624,61.849419 
z"/>
<path fill="#" opacity="1.000000" stroke="none" 
	d="
M43.112518,61.569077 
	C52.415432,61.601906 61.235275,61.595390 70.053902,61.695915 
	C74.327820,61.744640 78.213394,63.254131 79.719376,67.395912 
	C80.485611,69.503212 79.395561,72.285477 79.144638,74.762627 
	C75.997276,74.395126 72.761124,74.362572 69.729393,73.558861 
	C67.093735,72.860138 64.766968,70.532234 62.165997,70.265137 
	C57.063953,69.741203 51.797066,69.663345 46.737293,70.380653 
	C44.243446,70.734200 40.394531,72.976196 40.057838,74.877136 
	C39.172600,79.875153 39.436489,85.223366 40.225300,90.278740 
	C40.451630,91.729263 43.961739,93.510300 46.073784,93.664291 
	C52.197083,94.110756 58.384148,93.989563 64.525620,93.681328 
	C66.230263,93.595772 68.792908,92.484375 69.366844,91.154991 
	C71.741997,85.653435 76.160561,88.525261 79.737747,88.248314 
	C80.197418,88.212715 81.145683,89.898514 81.269936,90.863831 
	C82.084846,97.194786 78.130661,102.156242 71.706726,102.286980 
	C60.729229,102.510376 49.740040,102.500023 38.762764,102.263176 
	C32.363380,102.125099 27.932770,97.406616 27.730976,91.043091 
	C27.578089,86.221779 27.666321,81.392220 27.678341,76.566406 
	C27.705717,65.576241 31.457340,61.822784 43.112518,61.569077 
z"/>
<path fill="#5B9CD0" opacity="1.000000" stroke="none" 
	d="
M22.990353,109.975616 
	C42.095703,109.939514 61.214893,110.024864 80.331352,109.835182 
	C84.668121,109.792152 86.389030,111.180595 86.065338,115.577393 
	C85.773193,119.545708 85.891212,123.557251 86.046494,127.541229 
	C86.163857,130.552444 84.714310,131.912338 81.942932,131.919510 
	C63.489582,131.967255 45.036034,131.937225 26.582672,131.981735 
	C23.679943,131.988739 22.886713,130.448654 22.925131,127.874924 
	C23.009489,122.223709 22.994705,116.571022 22.988794,110.449387 
	C22.957191,109.979851 23.003201,109.997437 22.990353,109.975616 
z"/>
</svg>
