<svg width="541" height="376" viewBox="0 0 541 376" fill="none" xmlns="http://www.w3.org/2000/svg">
<path d="M269.5 0L373 44H166L269.5 0Z" fill="#3696D7"/>
<rect x="166" y="44" width="207" height="68" fill="#3696D7"/>
<rect x="4" y="301" width="138" height="75" fill="#3696D7"/>
<rect x="396" y="301" width="141" height="75" fill="#3696D7"/>
<rect x="166" y="301" width="207" height="75" fill="#3696D7"/>
<g filter="url(#filter0_d_10_13)">
<path d="M142 48V110H4L142 48Z" fill="#3696D7"/>
</g>
<g filter="url(#filter1_d_10_13)">
<path d="M396 48V110H537L396 48Z" fill="#3696D7"/>
</g>
<path d="M121.438 234.711H145.852C145.07 244.021 142.466 252.322 138.039 259.613C133.612 266.84 127.395 272.536 119.387 276.703C111.379 280.87 101.646 282.953 90.1875 282.953C81.3984 282.953 73.4883 281.391 66.457 278.266C59.4258 275.076 53.4036 270.583 48.3906 264.789C43.3776 258.93 39.5365 251.866 36.8672 243.598C34.263 235.329 32.9609 226.085 32.9609 215.863V204.047C32.9609 193.826 34.2956 184.581 36.9648 176.312C39.6992 168.044 43.6055 160.98 48.6836 155.121C53.7617 149.197 59.849 144.672 66.9453 141.547C74.1068 138.422 82.1471 136.859 91.0664 136.859C102.395 136.859 111.965 138.943 119.777 143.109C127.59 147.276 133.645 153.038 137.941 160.395C142.303 167.751 144.973 176.182 145.949 185.688H121.535C120.884 179.568 119.452 174.327 117.238 169.965C115.09 165.603 111.9 162.283 107.668 160.004C103.436 157.66 97.9023 156.488 91.0664 156.488C85.4674 156.488 80.5846 157.53 76.418 159.613C72.2513 161.697 68.7682 164.757 65.9688 168.793C63.1693 172.829 61.0534 177.81 59.6211 183.734C58.2539 189.594 57.5703 196.299 57.5703 203.852V215.863C57.5703 223.025 58.1888 229.535 59.4258 235.395C60.7279 241.189 62.681 246.169 65.2852 250.336C67.9544 254.503 71.3398 257.725 75.4414 260.004C79.543 262.283 84.4583 263.422 90.1875 263.422C97.1536 263.422 102.785 262.315 107.082 260.102C111.444 257.888 114.732 254.665 116.945 250.434C119.224 246.137 120.721 240.896 121.438 234.711ZM301.906 234.711H326.32C325.539 244.021 322.935 252.322 318.508 259.613C314.081 266.84 307.863 272.536 299.855 276.703C291.848 280.87 282.115 282.953 270.656 282.953C261.867 282.953 253.957 281.391 246.926 278.266C239.895 275.076 233.872 270.583 228.859 264.789C223.846 258.93 220.005 251.866 217.336 243.598C214.732 235.329 213.43 226.085 213.43 215.863V204.047C213.43 193.826 214.764 184.581 217.434 176.312C220.168 168.044 224.074 160.98 229.152 155.121C234.23 149.197 240.318 144.672 247.414 141.547C254.576 138.422 262.616 136.859 271.535 136.859C282.863 136.859 292.434 138.943 300.246 143.109C308.059 147.276 314.113 153.038 318.41 160.395C322.772 167.751 325.441 176.182 326.418 185.688H302.004C301.353 179.568 299.921 174.327 297.707 169.965C295.559 165.603 292.368 162.283 288.137 160.004C283.905 157.66 278.371 156.488 271.535 156.488C265.936 156.488 261.053 157.53 256.887 159.613C252.72 161.697 249.237 164.757 246.438 168.793C243.638 172.829 241.522 177.81 240.09 183.734C238.723 189.594 238.039 196.299 238.039 203.852V215.863C238.039 223.025 238.658 229.535 239.895 235.395C241.197 241.189 243.15 246.169 245.754 250.336C248.423 254.503 251.809 257.725 255.91 260.004C260.012 262.283 264.927 263.422 270.656 263.422C277.622 263.422 283.254 262.315 287.551 260.102C291.913 257.888 295.201 254.665 297.414 250.434C299.693 246.137 301.19 240.896 301.906 234.711ZM482.375 234.711H506.789C506.008 244.021 503.404 252.322 498.977 259.613C494.549 266.84 488.332 272.536 480.324 276.703C472.316 280.87 462.583 282.953 451.125 282.953C442.336 282.953 434.426 281.391 427.395 278.266C420.363 275.076 414.341 270.583 409.328 264.789C404.315 258.93 400.474 251.866 397.805 243.598C395.201 235.329 393.898 226.085 393.898 215.863V204.047C393.898 193.826 395.233 184.581 397.902 176.312C400.637 168.044 404.543 160.98 409.621 155.121C414.699 149.197 420.786 144.672 427.883 141.547C435.044 138.422 443.085 136.859 452.004 136.859C463.332 136.859 472.902 138.943 480.715 143.109C488.527 147.276 494.582 153.038 498.879 160.395C503.241 167.751 505.91 176.182 506.887 185.688H482.473C481.822 179.568 480.389 174.327 478.176 169.965C476.027 165.603 472.837 162.283 468.605 160.004C464.374 157.66 458.84 156.488 452.004 156.488C446.405 156.488 441.522 157.53 437.355 159.613C433.189 161.697 429.706 164.757 426.906 168.793C424.107 172.829 421.991 177.81 420.559 183.734C419.191 189.594 418.508 196.299 418.508 203.852V215.863C418.508 223.025 419.126 229.535 420.363 235.395C421.665 241.189 423.618 246.169 426.223 250.336C428.892 254.503 432.277 257.725 436.379 260.004C440.48 262.283 445.396 263.422 451.125 263.422C458.091 263.422 463.723 262.315 468.02 260.102C472.382 257.888 475.669 254.665 477.883 250.434C480.161 246.137 481.659 240.896 482.375 234.711Z" fill="black"/>
<defs>
<filter id="filter0_d_10_13" x="0" y="48" width="146" height="70" filterUnits="userSpaceOnUse" color-interpolation-filters="sRGB">
<feFlood flood-opacity="0" result="BackgroundImageFix"/>
<feColorMatrix in="SourceAlpha" type="matrix" values="0 0 0 0 0 0 0 0 0 0 0 0 0 0 0 0 0 0 127 0" result="hardAlpha"/>
<feOffset dy="4"/>
<feGaussianBlur stdDeviation="2"/>
<feComposite in2="hardAlpha" operator="out"/>
<feColorMatrix type="matrix" values="0 0 0 0 0 0 0 0 0 0 0 0 0 0 0 0 0 0 0.25 0"/>
<feBlend mode="normal" in2="BackgroundImageFix" result="effect1_dropShadow_10_13"/>
<feBlend mode="normal" in="SourceGraphic" in2="effect1_dropShadow_10_13" result="shape"/>
</filter>
<filter id="filter1_d_10_13" x="392" y="48" width="149" height="70" filterUnits="userSpaceOnUse" color-interpolation-filters="sRGB">
<feFlood flood-opacity="0" result="BackgroundImageFix"/>
<feColorMatrix in="SourceAlpha" type="matrix" values="0 0 0 0 0 0 0 0 0 0 0 0 0 0 0 0 0 0 127 0" result="hardAlpha"/>
<feOffset dy="4"/>
<feGaussianBlur stdDeviation="2"/>
<feComposite in2="hardAlpha" operator="out"/>
<feColorMatrix type="matrix" values="0 0 0 0 0 0 0 0 0 0 0 0 0 0 0 0 0 0 0.25 0"/>
<feBlend mode="normal" in2="BackgroundImageFix" result="effect1_dropShadow_10_13"/>
<feBlend mode="normal" in="SourceGraphic" in2="effect1_dropShadow_10_13" result="shape"/>
</filter>
</defs>
</svg>
